<svg width="28" height="28" viewBox="0 0 28 28" fill="none" xmlns="http://www.w3.org/2000/svg">
<path d="M21.9972 3.23706C22.3626 3.2371 22.6895 3.56404 22.6896 3.92944V6.79077H24.0704C25.2641 6.79077 26.2443 7.77094 26.2443 8.9646V22.5896C26.2443 23.7833 25.2641 24.7634 24.0704 24.7634H3.92883C2.73526 24.7633 1.75598 23.7832 1.75598 22.5896V5.70679C1.75598 4.34903 2.86795 3.23706 4.22571 3.23706H21.9972ZM3.14075 22.5896C3.14075 23.0368 3.48161 23.3786 3.92883 23.3787H24.0704C24.5177 23.3787 24.8595 23.0369 24.8595 22.5896V19.1355H16.3693C15.5039 19.1353 14.7882 18.4198 14.7882 17.5544V13.9998C14.7883 13.1345 15.504 12.4189 16.3693 12.4187H24.8595V8.9646C24.8595 8.51729 24.5177 8.17554 24.0704 8.17554C18.3362 8.17554 10.8971 8.16961 4.22571 8.17554C3.83674 8.17554 3.46827 8.0811 3.14075 7.9187V22.5896ZM16.3693 13.8035C16.3062 13.8034 16.2584 13.8254 16.2267 13.8572C16.195 13.8889 16.173 13.9367 16.173 13.9998V17.5544C16.173 17.6176 16.195 17.6653 16.2267 17.697C16.2584 17.7287 16.3062 17.7507 16.3693 17.7507H24.8595V13.8035H16.3693ZM19.3312 14.4919C20.0407 14.4919 20.6163 15.0676 20.6163 15.7771C20.6163 16.4867 20.0407 17.0623 19.3312 17.0623C18.6218 17.062 18.047 16.4866 18.047 15.7771C18.0471 15.0677 18.6218 14.4922 19.3312 14.4919ZM4.22571 4.62183C3.6143 4.62183 3.14075 5.09538 3.14075 5.70679C3.141 6.31796 3.61446 6.79077 4.22571 6.79077H21.3048V4.62183H4.22571Z" fill="#A7A8AB" stroke="#A7A8AB" stroke-width="0.2"/>
</svg>
